<svg xmlns="http://www.w3.org/2000/svg" width="22" height="19" viewBox="0 0 22 19" fill="none">
<path d="M20.3953 9.06569H19.0029C18.8624 8.52236 18.5454 8.0411 18.1017 7.69752C17.6579 7.35394 17.1126 7.1675 16.5514 7.1675C15.9902 7.1675 15.4449 7.35394 15.0012 7.69752C14.5575 8.0411 14.2405 8.52236 14.1 9.06569H1.60469C1.4413 9.07476 1.28758 9.14605 1.17513 9.26492C1.06267 9.38379 1 9.54122 1 9.70486C1 9.8685 1.06267 10.0259 1.17513 10.1448C1.28758 10.2637 1.4413 10.335 1.60469 10.344H14.1C14.2405 10.8874 14.5575 11.3686 15.0012 11.7122C15.4449 12.0558 15.9902 12.2422 16.5514 12.2422C17.1126 12.2422 17.6579 12.0558 18.1017 11.7122C18.5454 11.3686 18.8624 10.8874 19.0029 10.344H20.3953C20.5587 10.335 20.7124 10.2637 20.8249 10.1448C20.9373 10.0259 21 9.8685 21 9.70486C21 9.54122 20.9373 9.38379 20.8249 9.26492C20.7124 9.14605 20.5587 9.07476 20.3953 9.06569ZM16.5514 10.9616C16.3031 10.9616 16.0603 10.8879 15.8538 10.7499C15.6473 10.612 15.4863 10.4158 15.3913 10.1864C15.2963 9.95693 15.2714 9.70445 15.3198 9.46086C15.3683 9.21728 15.4879 8.99353 15.6635 8.81791C15.8391 8.6423 16.0629 8.5227 16.3065 8.47425C16.55 8.4258 16.8025 8.45066 17.032 8.5457C17.2614 8.64075 17.4576 8.8017 17.5955 9.0082C17.7335 9.2147 17.8072 9.45748 17.8072 9.70584C17.8072 10.0389 17.6749 10.3583 17.4394 10.5938C17.2039 10.8293 16.8845 10.9616 16.5514 10.9616ZM20.3953 15.2322H13.4529C13.3124 14.6889 12.9954 14.2076 12.5517 13.864C12.108 13.5205 11.5627 13.334 11.0015 13.334C10.4403 13.334 9.89498 13.5205 9.45125 13.864C9.00752 14.2076 8.69051 14.6889 8.55001 15.2322H1.60469C1.4413 15.2413 1.28758 15.3126 1.17513 15.4314C1.06267 15.5503 1 15.7077 1 15.8714C1 16.035 1.06267 16.1924 1.17513 16.3113C1.28758 16.4302 1.4413 16.5015 1.60469 16.5105H8.54804C8.68854 17.0539 9.00555 17.5351 9.44928 17.8787C9.89301 18.2223 10.4383 18.4087 10.9995 18.4087C11.5607 18.4087 12.106 18.2223 12.5497 17.8787C12.9935 17.5351 13.3105 17.0539 13.451 16.5105H20.3953C20.5587 16.5015 20.7124 16.4302 20.8249 16.3113C20.9373 16.1924 21 16.035 21 15.8714C21 15.7077 20.9373 15.5503 20.8249 15.4314C20.7124 15.3126 20.5587 15.2413 20.3953 15.2322ZM11.0005 17.133C10.7521 17.133 10.5094 17.0594 10.3028 16.9214C10.0963 16.7834 9.9354 16.5873 9.84035 16.3578C9.74531 16.1284 9.72044 15.8759 9.7689 15.6323C9.81735 15.3887 9.93694 15.165 10.1126 14.9893C10.2882 14.8137 10.5119 14.6941 10.7555 14.6457C10.9991 14.5972 11.2516 14.6221 11.481 14.7171C11.7105 14.8122 11.9066 14.9731 12.0446 15.1796C12.1826 15.3861 12.2562 15.6289 12.2562 15.8773C12.2562 16.0422 12.2237 16.2055 12.1606 16.3578C12.0975 16.5102 12.005 16.6486 11.8884 16.7652C11.7718 16.8818 11.6334 16.9743 11.481 17.0374C11.3287 17.1005 11.1654 17.133 11.0005 17.133ZM1.60469 4.17653H2.99709C3.13759 4.71986 3.4546 5.20111 3.89833 5.5447C4.34206 5.88828 4.88736 6.07471 5.44856 6.07471C6.00976 6.07471 6.55505 5.88828 6.99878 5.5447C7.44251 5.20111 7.75953 4.71986 7.90002 4.17653H20.3953C20.5587 4.16746 20.7124 4.09617 20.8249 3.9773C20.9373 3.85842 21 3.701 21 3.53736C21 3.37372 20.9373 3.21629 20.8249 3.09742C20.7124 2.97855 20.5587 2.90725 20.3953 2.89819H7.90002C7.75953 2.35486 7.44251 1.8736 6.99878 1.53002C6.55505 1.18644 6.00976 1 5.44856 1C4.88736 1 4.34206 1.18644 3.89833 1.53002C3.4546 1.8736 3.13759 2.35486 2.99709 2.89819H1.60469C1.4413 2.90725 1.28758 2.97855 1.17513 3.09742C1.06267 3.21629 1 3.37372 1 3.53736C1 3.701 1.06267 3.85842 1.17513 3.9773C1.28758 4.09617 1.4413 4.16746 1.60469 4.17653ZM5.44856 2.28065C5.69692 2.28065 5.9397 2.3543 6.1462 2.49228C6.3527 2.63026 6.51365 2.82638 6.6087 3.05583C6.70374 3.28528 6.72861 3.53777 6.68015 3.78135C6.6317 4.02494 6.51211 4.24869 6.33649 4.4243C6.16087 4.59992 5.93712 4.71952 5.69354 4.76797C5.44995 4.81642 5.19747 4.79155 4.96801 4.69651C4.73856 4.60147 4.54244 4.44052 4.40446 4.23402C4.26648 4.02751 4.19283 3.78473 4.19283 3.53637C4.19283 3.20334 4.32513 2.88394 4.56063 2.64844C4.79612 2.41295 5.11552 2.28065 5.44856 2.28065Z" fill="#5A40A4" stroke="#5A40A4" stroke-width="0.5"/>
</svg>